<?xml version="1.0" standalone="no"?>
<!DOCTYPE svg PUBLIC "-//W3C//DTD SVG 20010904//EN"
 "http://www.w3.org/TR/2001/REC-SVG-20010904/DTD/svg10.dtd">
<svg version="1.0" xmlns="http://www.w3.org/2000/svg"
 width="128.000000pt" height="128.000000pt" viewBox="0 0 128.000000 128.000000"
 preserveAspectRatio="xMidYMid meet">
<metadata>
Created by potrace 1.11, written by Peter Selinger 2001-2013
</metadata>
<g transform="translate(0.000000,128.000000) scale(0.100000,-0.100000)"
fill="#000000" stroke="none">
<path d="M453 1263 c-18 -9 -35 -25 -39 -35 -3 -10 -10 -18 -15 -18 -22 0 -89
-75 -113 -126 -48 -101 -33 -177 50 -253 25 -22 47 -41 49 -41 3 0 25 -9 51
-20 25 -11 50 -20 55 -20 5 0 9 -3 9 -7 0 -5 10 -9 23 -9 43 -3 67 -8 67 -15
0 -3 8 -6 18 -6 52 0 73 -4 67 -13 -3 -5 0 -7 8 -4 8 3 18 1 21 -5 3 -5 -7
-12 -24 -16 -34 -7 -93 -72 -127 -137 -59 -117 -72 -166 -68 -253 4 -79 31
-139 86 -192 50 -49 69 -65 69 -59 0 3 15 -1 34 -9 30 -13 36 -13 46 1 7 8 15
12 18 10 2 -3 14 1 26 9 25 18 40 19 30 3 -4 -7 5 -1 21 15 15 15 34 27 41 27
8 0 14 5 14 11 0 5 5 7 10 4 6 -4 9 -1 8 7 -2 7 3 12 9 11 7 -2 12 3 10 10 -1
6 3 11 9 10 7 -1 11 5 10 15 0 10 5 16 13 14 8 -2 11 3 8 11 -3 8 0 23 7 33 7
11 12 27 10 37 -1 9 1 17 6 17 4 0 6 10 2 22 -4 16 -2 19 9 13 11 -6 11 -5 2
5 -9 9 -9 19 -2 33 6 11 7 17 2 14 -6 -4 -10 8 -10 26 0 35 -7 75 -22 125 -5
17 -7 32 -3 32 4 0 1 4 -6 8 -7 5 -14 22 -15 39 -1 17 -5 29 -9 26 -5 -2 -8 3
-8 13 0 20 -54 74 -74 74 -7 0 -19 7 -27 16 -19 24 -101 62 -223 105 -149 53
-215 88 -238 124 -18 31 -25 81 -9 71 5 -4 7 3 4 14 -3 12 0 20 6 20 7 0 9 5
6 10 -3 6 -1 10 4 10 6 0 10 3 8 8 -2 9 38 62 50 65 4 1 7 5 6 9 -4 10 35 20
48 12 7 -4 9 -3 5 4 -3 6 -2 13 4 17 5 3 10 1 10 -6 0 -7 7 -4 15 7 14 19 14
19 29 -2 9 -12 27 -25 41 -28 16 -4 23 -11 19 -19 -5 -9 -3 -8 7 1 11 10 11
16 1 33 -8 12 -10 24 -6 27 4 4 9 2 11 -4 2 -7 12 -10 23 -7 18 5 70 -35 70
-54 0 -5 -18 -29 -40 -53 -22 -24 -39 -49 -37 -55 5 -13 68 -10 77 4 4 8 18 1
41 -19 19 -17 44 -33 56 -36 28 -7 57 2 48 16 -3 5 -1 10 5 10 23 0 -18 29
-59 41 -40 12 -42 15 -41 48 3 69 0 83 -28 111 -35 35 -95 52 -180 51 -52 0
-63 2 -58 14 3 8 4 15 3 14 -1 0 -17 -8 -34 -16z"/>
</g>
</svg>
